# MagicaVoxel @ Ephtracy

# group
o 

# material
mtllib Dwarf4.mtl
usemtl palette

# normals
vn -1 0 0
vn 1 0 0
vn 0 0 1
vn 0 0 -1
vn 0 -1 0
vn 0 1 0

# texcoords
vt 0.177734 0.5
vt 0.181641 0.5
vt 0.259766 0.5
vt 0.935547 0.5
vt 0.990234 0.5

# verts
v -0.3 1 0.3
v -0.3 1 0.2
v -0.3 1 0.1
v -0.3 1 -0.1
v -0.3 1 -0.2
v -0.3 1 -0.3
v -0.3 1.2 0.2
v -0.3 1.2 0.1
v -0.3 1.2 -0.1
v -0.3 1.2 -0.2
v -0.3 1.3 0.3
v -0.3 1.3 0.2
v -0.3 1.3 -0.2
v -0.3 1.3 -0.3
v -0.3 1.4 0.3
v -0.3 1.4 0.2
v -0.3 1.4 -0.2
v -0.3 1.4 -0.3
v -0.3 1.5 0.1
v -0.3 1.5 -0.1
v -0.3 1.6 0.3
v -0.3 1.6 0.2
v -0.3 1.6 0.1
v -0.3 1.6 -0.1
v -0.3 1.6 -0.2
v -0.3 1.6 -0.3
v -0.3 1.7 0.2
v -0.3 1.7 -0.2
v -0.2 1.3 0.3
v -0.2 1.3 0.2
v -0.2 1.3 -0.2
v -0.2 1.3 -0.3
v -0.2 1.4 0.3
v -0.2 1.4 0.2
v -0.2 1.4 -0.2
v -0.2 1.4 -0.3
v -0.2 1.5 0.2
v -0.2 1.5 0.1
v -0.2 1.5 -0.1
v -0.2 1.5 -0.2
v -0.2 1.6 0.3
v -0.2 1.6 0.2
v -0.2 1.6 0.1
v -0.2 1.6 -0.1
v -0.2 1.6 -0.2
v -0.2 1.6 -0.3
v -0.2 1.7 0.3
v -0.2 1.7 0.2
v -0.2 1.7 -0.2
v -0.2 1.7 -0.3
v -0.2 1.8 0.2
v -0.2 1.8 -0.2
v -0.1 1.4 0.4
v -0.1 1.4 0.3
v -0.1 1.4 -0.3
v -0.1 1.4 -0.4
v -0.1 1.5 0.4
v -0.1 1.5 0.3
v -0.1 1.5 -0.3
v -0.1 1.5 -0.4
v -0.2 1 0.3
v -0.2 1 0.2
v -0.2 1 0.1
v -0.2 1 -0.1
v -0.2 1 -0.2
v -0.2 1 -0.3
v -0.2 1.2 0.2
v -0.2 1.2 0.1
v -0.2 1.2 -0.1
v -0.2 1.2 -0.2
v -0.2 1.3 0.3
v -0.2 1.3 0.2
v -0.2 1.3 -0.2
v -0.2 1.3 -0.3
v 0.1 1.2 0.2
v 0.1 1.2 0.1
v 0.1 1.2 -0.1
v 0.1 1.2 -0.2
v 0.1 1.3 0.2
v 0.1 1.3 0.1
v 0.1 1.3 -0.1
v 0.1 1.3 -0.2
v 0.1 1.4 0.4
v 0.1 1.4 0.3
v 0.1 1.4 -0.3
v 0.1 1.4 -0.4
v 0.1 1.5 0.4
v 0.1 1.5 0.3
v 0.1 1.5 -0.3
v 0.1 1.5 -0.4
v 0.2 1.2 0.1
v 0.2 1.2 -0.1
v 0.2 1.3 0.3
v 0.2 1.3 0.2
v 0.2 1.3 0.1
v 0.2 1.3 -0.1
v 0.2 1.3 -0.2
v 0.2 1.3 -0.3
v 0.2 1.4 0.2
v 0.2 1.4 -0.2
v 0.2 1.7 0.3
v 0.2 1.7 0.2
v 0.2 1.7 -0.2
v 0.2 1.7 -0.3
v 0.2 1.8 0.2
v 0.2 1.8 -0.2
v 0.3 1.4 0.2
v 0.3 1.4 -0.2
v 0.3 1.7 0.2
v 0.3 1.7 -0.2
v -0.1 1.4 0.4
v -0.1 1.5 0.4
v 0.1 1.4 0.4
v 0.1 1.5 0.4
v -0.3 1 0.3
v -0.3 1.3 0.3
v -0.3 1.4 0.3
v -0.3 1.6 0.3
v -0.2 1 0.3
v -0.2 1.3 0.3
v -0.2 1.4 0.3
v -0.2 1.6 0.3
v -0.2 1.7 0.3
v -0.1 1.3 0.3
v -0.1 1.4 0.3
v -0.1 1.5 0.3
v 0.1 1.3 0.3
v 0.1 1.4 0.3
v 0.1 1.5 0.3
v 0.2 1.3 0.3
v 0.2 1.7 0.3
v -0.3 1.3 0.2
v -0.3 1.4 0.2
v -0.3 1.6 0.2
v -0.3 1.7 0.2
v -0.2 1.2 0.2
v -0.2 1.3 0.2
v -0.2 1.4 0.2
v -0.2 1.6 0.2
v -0.2 1.7 0.2
v -0.2 1.8 0.2
v -0.1 1.2 0.2
v -0.1 1.3 0.2
v 0.1 1.2 0.2
v 0.1 1.3 0.2
v 0.2 1.4 0.2
v 0.2 1.7 0.2
v 0.2 1.8 0.2
v 0.3 1.4 0.2
v 0.3 1.7 0.2
v -0.3 1 0.1
v -0.3 1.2 0.1
v -0.3 1.5 0.1
v -0.3 1.6 0.1
v -0.2 1 0.1
v -0.2 1.2 0.1
v -0.2 1.5 0.1
v -0.2 1.6 0.1
v 0.1 1.2 0.1
v 0.1 1.3 0.1
v 0.2 1.2 0.1
v 0.2 1.3 0.1
v -0.3 1 -0.2
v -0.3 1.2 -0.2
v -0.3 1.4 -0.2
v -0.3 1.6 -0.2
v -0.2 1 -0.2
v -0.2 1.2 -0.2
v -0.2 1.4 -0.2
v -0.2 1.5 -0.2
v -0.2 1.6 -0.2
v -0.3 1 0.2
v -0.3 1.2 0.2
v -0.3 1.4 0.2
v -0.3 1.6 0.2
v -0.2 1 0.2
v -0.2 1.2 0.2
v -0.2 1.4 0.2
v -0.2 1.5 0.2
v -0.2 1.6 0.2
v -0.3 1 -0.1
v -0.3 1.2 -0.1
v -0.3 1.5 -0.1
v -0.3 1.6 -0.1
v -0.2 1 -0.1
v -0.2 1.2 -0.1
v -0.2 1.5 -0.1
v -0.2 1.6 -0.1
v 0.1 1.2 -0.1
v 0.1 1.3 -0.1
v 0.2 1.2 -0.1
v 0.2 1.3 -0.1
v -0.3 1.3 -0.2
v -0.3 1.4 -0.2
v -0.3 1.6 -0.2
v -0.3 1.7 -0.2
v -0.2 1.2 -0.2
v -0.2 1.3 -0.2
v -0.2 1.4 -0.2
v -0.2 1.6 -0.2
v -0.2 1.7 -0.2
v -0.2 1.8 -0.2
v -0.1 1.2 -0.2
v -0.1 1.3 -0.2
v 0.1 1.2 -0.2
v 0.1 1.3 -0.2
v 0.2 1.4 -0.2
v 0.2 1.7 -0.2
v 0.2 1.8 -0.2
v 0.3 1.4 -0.2
v 0.3 1.7 -0.2
v -0.3 1 -0.3
v -0.3 1.3 -0.3
v -0.3 1.4 -0.3
v -0.3 1.6 -0.3
v -0.2 1 -0.3
v -0.2 1.3 -0.3
v -0.2 1.4 -0.3
v -0.2 1.6 -0.3
v -0.2 1.7 -0.3
v -0.1 1.3 -0.3
v -0.1 1.4 -0.3
v -0.1 1.5 -0.3
v 0.1 1.3 -0.3
v 0.1 1.4 -0.3
v 0.1 1.5 -0.3
v 0.2 1.3 -0.3
v 0.2 1.7 -0.3
v -0.1 1.4 -0.4
v -0.1 1.5 -0.4
v 0.1 1.4 -0.4
v 0.1 1.5 -0.4
v -0.3 1 0.3
v -0.2 1 0.3
v -0.3 1 0.2
v -0.2 1 0.2
v -0.3 1 0.1
v -0.2 1 0.1
v -0.3 1 -0.1
v -0.2 1 -0.1
v -0.3 1 -0.2
v -0.2 1 -0.2
v -0.3 1 -0.3
v -0.2 1 -0.3
v -0.3 1.2 0.2
v -0.2 1.2 0.2
v -0.1 1.2 0.2
v 0.1 1.2 0.2
v -0.3 1.2 0.1
v -0.2 1.2 0.1
v -0.1 1.2 0.1
v -2.98023e-08 1.2 0.1
v 0.1 1.2 0.1
v 0.2 1.2 0.1
v -0.3 1.2 -0.1
v -0.2 1.2 -0.1
v -0.1 1.2 -0.1
v -2.98023e-08 1.2 -0.1
v 0.1 1.2 -0.1
v 0.2 1.2 -0.1
v -0.3 1.2 -0.2
v -0.2 1.2 -0.2
v -0.1 1.2 -0.2
v 0.1 1.2 -0.2
v -0.2 1.3 0.3
v -0.1 1.3 0.3
v 0.1 1.3 0.3
v 0.2 1.3 0.3
v -0.2 1.3 0.2
v -0.1 1.3 0.2
v 0.1 1.3 0.2
v 0.2 1.3 0.2
v 0.1 1.3 0.1
v 0.2 1.3 0.1
v 0.1 1.3 -0.1
v 0.2 1.3 -0.1
v -0.2 1.3 -0.2
v -0.1 1.3 -0.2
v 0.1 1.3 -0.2
v 0.2 1.3 -0.2
v -0.2 1.3 -0.3
v -0.1 1.3 -0.3
v 0.1 1.3 -0.3
v 0.2 1.3 -0.3
v -0.1 1.4 0.4
v 0.1 1.4 0.4
v -0.3 1.4 0.3
v -0.2 1.4 0.3
v -0.1 1.4 0.3
v 0.1 1.4 0.3
v -0.3 1.4 0.2
v -0.2 1.4 0.2
v 0.2 1.4 0.2
v 0.3 1.4 0.2
v -0.3 1.4 -0.2
v -0.2 1.4 -0.2
v 0.2 1.4 -0.2
v 0.3 1.4 -0.2
v -0.3 1.4 -0.3
v -0.2 1.4 -0.3
v -0.1 1.4 -0.3
v 0.1 1.4 -0.3
v -0.1 1.4 -0.4
v 0.1 1.4 -0.4
v -0.3 1.5 0.1
v -0.2 1.5 0.1
v -0.3 1.5 -0.1
v -0.2 1.5 -0.1
v -0.3 1.6 0.2
v -0.2 1.6 0.2
v -0.3 1.6 0.1
v -0.2 1.6 0.1
v -0.3 1.6 -0.1
v -0.2 1.6 -0.1
v -0.3 1.6 -0.2
v -0.2 1.6 -0.2
v -0.3 1.3 0.3
v -0.2 1.3 0.3
v -0.3 1.3 0.2
v -0.2 1.3 0.2
v -0.3 1.3 -0.2
v -0.2 1.3 -0.2
v -0.3 1.3 -0.3
v -0.2 1.3 -0.3
v -0.3 1.4 0.2
v -0.2 1.4 0.2
v -0.3 1.4 -0.2
v -0.2 1.4 -0.2
v -0.1 1.5 0.4
v 0.1 1.5 0.4
v -0.1 1.5 0.3
v 0.1 1.5 0.3
v -0.1 1.5 -0.3
v 0.1 1.5 -0.3
v -0.1 1.5 -0.4
v 0.1 1.5 -0.4
v -0.3 1.6 0.3
v -0.2 1.6 0.3
v -0.3 1.6 0.2
v -0.2 1.6 0.2
v -0.3 1.6 -0.2
v -0.2 1.6 -0.2
v -0.3 1.6 -0.3
v -0.2 1.6 -0.3
v -0.2 1.7 0.3
v 0.2 1.7 0.3
v -0.3 1.7 0.2
v -0.2 1.7 0.2
v 0.2 1.7 0.2
v 0.3 1.7 0.2
v -0.3 1.7 -0.2
v -0.2 1.7 -0.2
v 0.2 1.7 -0.2
v 0.3 1.7 -0.2
v -0.2 1.7 -0.3
v 0.2 1.7 -0.3
v -0.2 1.8 0.2
v 0.2 1.8 0.2
v -0.2 1.8 -0.2
v 0.2 1.8 -0.2

# faces
f 7/2/1 2/2/1 1/2/1
f 8/2/1 4/2/1 3/2/1
f 9/2/1 4/2/1 8/2/1
f 10/2/1 6/2/1 5/2/1
f 11/2/1 9/2/1 8/2/1
f 11/2/1 10/2/1 9/2/1
f 11/2/1 7/2/1 1/2/1
f 11/2/1 8/2/1 7/2/1
f 12/2/1 10/2/1 11/2/1
f 13/2/1 6/2/1 10/2/1
f 13/2/1 10/2/1 12/2/1
f 14/2/1 6/2/1 13/2/1
f 16/2/1 13/2/1 12/2/1
f 17/2/1 13/2/1 16/2/1
f 21/4/1 16/4/1 15/4/1
f 22/4/1 16/4/1 21/4/1
f 23/4/1 20/4/1 19/4/1
f 24/4/1 20/4/1 23/4/1
f 25/4/1 18/4/1 17/4/1
f 26/4/1 18/4/1 25/4/1
f 27/4/1 24/4/1 23/4/1
f 27/4/1 25/4/1 24/4/1
f 27/4/1 23/4/1 22/4/1
f 28/4/1 25/4/1 27/4/1
f 33/2/1 30/2/1 29/2/1
f 34/2/1 30/2/1 33/2/1
f 35/2/1 32/2/1 31/2/1
f 36/2/1 32/2/1 35/2/1
f 37/3/1 35/3/1 34/3/1
f 38/3/1 35/3/1 37/3/1
f 39/3/1 35/3/1 38/3/1
f 40/3/1 35/3/1 39/3/1
f 42/5/1 38/5/1 37/5/1
f 43/5/1 38/5/1 42/5/1
f 44/5/1 40/5/1 39/5/1
f 45/5/1 40/5/1 44/5/1
f 47/4/1 42/4/1 41/4/1
f 48/4/1 42/4/1 47/4/1
f 49/4/1 46/4/1 45/4/1
f 50/4/1 46/4/1 49/4/1
f 51/4/1 49/4/1 48/4/1
f 52/4/1 49/4/1 51/4/1
f 57/4/1 54/4/1 53/4/1
f 58/4/1 54/4/1 57/4/1
f 59/4/1 56/4/1 55/4/1
f 60/4/1 56/4/1 59/4/1
f 61/2/2 62/2/2 67/2/2
f 63/2/2 64/2/2 68/2/2
f 68/2/2 64/2/2 69/2/2
f 65/2/2 66/2/2 70/2/2
f 61/2/2 67/2/2 71/2/2
f 71/2/2 67/2/2 72/2/2
f 70/2/2 66/2/2 73/2/2
f 73/2/2 66/2/2 74/2/2
f 75/3/2 76/3/2 79/3/2
f 79/3/2 76/3/2 80/3/2
f 77/3/2 78/3/2 81/3/2
f 81/3/2 78/3/2 82/3/2
f 83/4/2 84/4/2 87/4/2
f 87/4/2 84/4/2 88/4/2
f 85/4/2 86/4/2 89/4/2
f 89/4/2 86/4/2 90/4/2
f 91/1/2 92/1/2 95/1/2
f 95/1/2 92/1/2 96/1/2
f 93/4/2 94/4/2 99/4/2
f 94/1/2 95/1/2 99/1/2
f 96/1/2 97/1/2 99/1/2
f 95/1/2 96/1/2 99/1/2
f 97/4/2 98/4/2 100/4/2
f 99/1/2 97/1/2 100/1/2
f 93/4/2 99/4/2 101/4/2
f 101/4/2 99/4/2 102/4/2
f 100/4/2 98/4/2 103/4/2
f 103/4/2 98/4/2 104/4/2
f 102/4/2 103/4/2 105/4/2
f 105/4/2 103/4/2 106/4/2
f 107/4/2 108/4/2 109/4/2
f 109/4/2 108/4/2 110/4/2
f 113/4/3 112/4/3 111/4/3
f 114/4/3 112/4/3 113/4/3
f 119/2/3 116/2/3 115/2/3
f 120/2/3 116/2/3 119/2/3
f 121/4/3 118/4/3 117/4/3
f 122/4/3 118/4/3 121/4/3
f 124/2/3 121/2/3 120/2/3
f 125/4/3 123/4/3 122/4/3
f 125/2/3 121/2/3 124/2/3
f 125/4/3 122/4/3 121/4/3
f 126/4/3 123/4/3 125/4/3
f 127/3/3 125/3/3 124/3/3
f 128/3/3 125/3/3 127/3/3
f 129/4/3 123/4/3 126/4/3
f 130/4/3 128/4/3 127/4/3
f 130/4/3 129/4/3 128/4/3
f 131/4/3 123/4/3 129/4/3
f 131/4/3 129/4/3 130/4/3
f 137/2/3 133/2/3 132/2/3
f 138/2/3 133/2/3 137/2/3
f 139/4/3 135/4/3 134/4/3
f 140/4/3 135/4/3 139/4/3
f 142/2/3 137/2/3 136/2/3
f 143/2/3 137/2/3 142/2/3
f 144/3/3 143/3/3 142/3/3
f 145/3/3 143/3/3 144/3/3
f 147/4/3 141/4/3 140/4/3
f 148/4/3 141/4/3 147/4/3
f 149/4/3 147/4/3 146/4/3
f 150/4/3 147/4/3 149/4/3
f 155/2/3 152/2/3 151/2/3
f 156/2/3 152/2/3 155/2/3
f 157/4/3 154/4/3 153/4/3
f 158/4/3 154/4/3 157/4/3
f 161/1/3 160/1/3 159/1/3
f 162/1/3 160/1/3 161/1/3
f 167/2/3 164/2/3 163/2/3
f 168/2/3 164/2/3 167/2/3
f 169/4/3 166/4/3 165/4/3
f 170/4/3 166/4/3 169/4/3
f 171/4/3 166/4/3 170/4/3
f 172/2/4 173/2/4 176/2/4
f 176/2/4 173/2/4 177/2/4
f 174/4/4 175/4/4 178/4/4
f 178/4/4 175/4/4 179/4/4
f 179/4/4 175/4/4 180/4/4
f 181/2/4 182/2/4 185/2/4
f 185/2/4 182/2/4 186/2/4
f 183/4/4 184/4/4 187/4/4
f 187/4/4 184/4/4 188/4/4
f 189/1/4 190/1/4 191/1/4
f 191/1/4 190/1/4 192/1/4
f 193/2/4 194/2/4 198/2/4
f 198/2/4 194/2/4 199/2/4
f 195/4/4 196/4/4 200/4/4
f 200/4/4 196/4/4 201/4/4
f 197/2/4 198/2/4 203/2/4
f 203/2/4 198/2/4 204/2/4
f 203/3/4 204/3/4 205/3/4
f 205/3/4 204/3/4 206/3/4
f 201/4/4 202/4/4 208/4/4
f 208/4/4 202/4/4 209/4/4
f 207/4/4 208/4/4 210/4/4
f 210/4/4 208/4/4 211/4/4
f 212/2/4 213/2/4 216/2/4
f 216/2/4 213/2/4 217/2/4
f 214/4/4 215/4/4 218/4/4
f 218/4/4 215/4/4 219/4/4
f 217/2/4 218/2/4 221/2/4
f 219/4/4 220/4/4 222/4/4
f 221/2/4 218/2/4 222/2/4
f 218/4/4 219/4/4 222/4/4
f 222/4/4 220/4/4 223/4/4
f 221/3/4 222/3/4 224/3/4
f 224/3/4 222/3/4 225/3/4
f 223/4/4 220/4/4 226/4/4
f 224/4/4 225/4/4 227/4/4
f 225/4/4 226/4/4 227/4/4
f 226/4/4 220/4/4 228/4/4
f 227/4/4 226/4/4 228/4/4
f 229/4/4 230/4/4 231/4/4
f 231/4/4 230/4/4 232/4/4
f 235/2/5 234/2/5 233/2/5
f 236/2/5 234/2/5 235/2/5
f 239/2/5 238/2/5 237/2/5
f 240/2/5 238/2/5 239/2/5
f 243/2/5 242/2/5 241/2/5
f 244/2/5 242/2/5 243/2/5
f 249/2/5 246/2/5 245/2/5
f 249/2/5 247/2/5 246/2/5
f 250/2/5 247/2/5 249/2/5
f 251/3/5 248/3/5 247/3/5
f 251/2/5 247/2/5 250/2/5
f 252/3/5 248/3/5 251/3/5
f 253/3/5 248/3/5 252/3/5
f 256/2/5 251/2/5 250/2/5
f 257/4/5 252/4/5 251/4/5
f 257/2/5 251/2/5 256/2/5
f 258/3/5 253/3/5 252/3/5
f 258/4/5 252/4/5 257/4/5
f 259/1/5 254/1/5 253/1/5
f 259/3/5 253/3/5 258/3/5
f 260/1/5 254/1/5 259/1/5
f 261/2/5 257/2/5 256/2/5
f 261/2/5 256/2/5 255/2/5
f 262/2/5 257/2/5 261/2/5
f 263/3/5 258/3/5 257/3/5
f 263/2/5 257/2/5 262/2/5
f 263/3/5 259/3/5 258/3/5
f 264/3/5 259/3/5 263/3/5
f 269/2/5 266/2/5 265/2/5
f 270/3/5 267/3/5 266/3/5
f 270/2/5 266/2/5 269/2/5
f 271/4/5 268/4/5 267/4/5
f 271/3/5 267/3/5 270/3/5
f 272/4/5 268/4/5 271/4/5
f 273/1/5 272/1/5 271/1/5
f 274/1/5 272/1/5 273/1/5
f 279/1/5 276/1/5 275/1/5
f 280/1/5 276/1/5 279/1/5
f 281/2/5 278/2/5 277/2/5
f 282/3/5 279/3/5 278/3/5
f 282/2/5 278/2/5 281/2/5
f 283/4/5 280/4/5 279/4/5
f 283/3/5 279/3/5 282/3/5
f 284/4/5 280/4/5 283/4/5
f 289/4/5 286/4/5 285/4/5
f 290/4/5 286/4/5 289/4/5
f 291/4/5 288/4/5 287/4/5
f 292/4/5 288/4/5 291/4/5
f 297/4/5 294/4/5 293/4/5
f 298/4/5 294/4/5 297/4/5
f 299/4/5 296/4/5 295/4/5
f 300/4/5 296/4/5 299/4/5
f 303/4/5 302/4/5 301/4/5
f 304/4/5 302/4/5 303/4/5
f 307/4/5 306/4/5 305/4/5
f 308/4/5 306/4/5 307/4/5
f 311/4/5 310/4/5 309/4/5
f 312/4/5 310/4/5 311/4/5
f 315/4/5 314/4/5 313/4/5
f 316/4/5 314/4/5 315/4/5
f 317/2/6 318/2/6 319/2/6
f 319/2/6 318/2/6 320/2/6
f 321/2/6 322/2/6 323/2/6
f 323/2/6 322/2/6 324/2/6
f 325/2/6 326/2/6 327/2/6
f 327/2/6 326/2/6 328/2/6
f 329/4/6 330/4/6 331/4/6
f 331/4/6 330/4/6 332/4/6
f 333/4/6 334/4/6 335/4/6
f 335/4/6 334/4/6 336/4/6
f 337/4/6 338/4/6 339/4/6
f 339/4/6 338/4/6 340/4/6
f 341/4/6 342/4/6 343/4/6
f 343/4/6 342/4/6 344/4/6
f 345/4/6 346/4/6 348/4/6
f 348/4/6 346/4/6 349/4/6
f 347/4/6 348/4/6 351/4/6
f 351/4/6 348/4/6 352/4/6
f 349/4/6 350/4/6 353/4/6
f 353/4/6 350/4/6 354/4/6
f 352/4/6 353/4/6 355/4/6
f 355/4/6 353/4/6 356/4/6
f 357/4/6 358/4/6 359/4/6
f 359/4/6 358/4/6 360/4/6
