# MagicaVoxel @ Ephtracy

# group
o 

# material
mtllib Sword.mtl
usemtl palette

# normals
vn -1 0 0
vn 1 0 0
vn 0 0 1
vn 0 0 -1
vn 0 -1 0
vn 0 1 0

# texcoords
vt 0.177734 0.5
vt 0.947266 0.5
vt 0.970703 0.5

# verts
v -0.3 0.6 0.5
v -0.3 0.6 0.3
v -0.3 0.6 -1
v -0.3 0.6 -1.2
v -0.3 0.7 0.5
v -0.3 0.7 0.3
v -0.3 0.7 -1
v -0.3 0.7 -1.2
v -0.2 0.5 0.4
v -0.2 0.5 0.3
v -0.2 0.6 0.6
v -0.2 0.6 0.5
v -0.2 0.6 0.4
v -0.2 0.6 0.3
v -0.2 0.6 -1
v -0.2 0.7 0.6
v -0.2 0.7 0.5
v -0.2 0.7 0.4
v -0.2 0.7 0.3
v -0.2 0.7 -1
v -0.2 0.8 0.4
v -0.2 0.8 0.3
v -0.1 0.5 0.5
v -0.1 0.5 0.4
v -0.1 0.6 1.2
v -0.1 0.6 0.6
v -0.1 0.6 0.5
v -0.1 0.6 0.4
v -0.1 0.7 1.2
v -0.1 0.7 0.6
v -0.1 0.7 0.5
v -0.1 0.7 0.4
v -0.1 0.8 0.5
v -0.1 0.8 0.4
v 0.1 0.5 0.5
v 0.1 0.5 0.4
v 0.1 0.6 1.2
v 0.1 0.6 0.6
v 0.1 0.6 0.5
v 0.1 0.6 0.4
v 0.1 0.7 1.2
v 0.1 0.7 0.6
v 0.1 0.7 0.5
v 0.1 0.7 0.4
v 0.1 0.8 0.5
v 0.1 0.8 0.4
v 0.2 0.5 0.4
v 0.2 0.5 0.3
v 0.2 0.6 0.6
v 0.2 0.6 0.5
v 0.2 0.6 0.4
v 0.2 0.6 0.3
v 0.2 0.6 -1
v 0.2 0.7 0.6
v 0.2 0.7 0.5
v 0.2 0.7 0.4
v 0.2 0.7 0.3
v 0.2 0.7 -1
v 0.2 0.8 0.4
v 0.2 0.8 0.3
v 0.3 0.6 0.5
v 0.3 0.6 0.3
v 0.3 0.6 -1
v 0.3 0.6 -1.2
v 0.3 0.7 0.5
v 0.3 0.7 0.3
v 0.3 0.7 -1
v 0.3 0.7 -1.2
v -0.1 0.6 1.2
v -0.1 0.7 1.2
v 0.1 0.6 1.2
v 0.1 0.7 1.2
v -0.2 0.6 0.6
v -0.2 0.7 0.6
v -0.1 0.6 0.6
v -0.1 0.7 0.6
v 0.1 0.6 0.6
v 0.1 0.7 0.6
v 0.2 0.6 0.6
v 0.2 0.7 0.6
v -0.3 0.6 0.5
v -0.3 0.7 0.5
v -0.2 0.6 0.5
v -0.2 0.7 0.5
v -0.1 0.5 0.5
v -0.1 0.6 0.5
v -0.1 0.7 0.5
v -0.1 0.8 0.5
v 0.1 0.5 0.5
v 0.1 0.6 0.5
v 0.1 0.7 0.5
v 0.1 0.8 0.5
v 0.2 0.6 0.5
v 0.2 0.7 0.5
v 0.3 0.6 0.5
v 0.3 0.7 0.5
v -0.2 0.5 0.4
v -0.2 0.6 0.4
v -0.2 0.7 0.4
v -0.2 0.8 0.4
v -0.1 0.5 0.4
v -0.1 0.6 0.4
v -0.1 0.7 0.4
v -0.1 0.8 0.4
v 0.1 0.5 0.4
v 0.1 0.6 0.4
v 0.1 0.7 0.4
v 0.1 0.8 0.4
v 0.2 0.5 0.4
v 0.2 0.6 0.4
v 0.2 0.7 0.4
v 0.2 0.8 0.4
v -0.3 0.6 -1
v -0.3 0.7 -1
v -0.2 0.6 -1
v -0.2 0.7 -1
v 0.2 0.6 -1
v 0.2 0.7 -1
v 0.3 0.6 -1
v 0.3 0.7 -1
v -0.3 0.6 0.3
v -0.3 0.7 0.3
v -0.2 0.5 0.3
v -0.2 0.6 0.3
v -0.2 0.7 0.3
v -0.2 0.8 0.3
v 0.2 0.5 0.3
v 0.2 0.6 0.3
v 0.2 0.7 0.3
v 0.2 0.8 0.3
v 0.3 0.6 0.3
v 0.3 0.7 0.3
v -0.3 0.6 -1.2
v -0.3 0.7 -1.2
v 0.3 0.6 -1.2
v 0.3 0.7 -1.2
v -0.1 0.5 0.5
v 0.1 0.5 0.5
v -0.2 0.5 0.4
v -0.1 0.5 0.4
v 0.1 0.5 0.4
v 0.2 0.5 0.4
v -0.2 0.5 0.3
v 0.2 0.5 0.3
v -0.1 0.6 1.2
v 0.1 0.6 1.2
v -0.2 0.6 0.6
v -0.1 0.6 0.6
v 0.1 0.6 0.6
v 0.2 0.6 0.6
v -0.3 0.6 0.5
v -0.2 0.6 0.5
v -0.1 0.6 0.5
v 0.1 0.6 0.5
v 0.2 0.6 0.5
v 0.3 0.6 0.5
v -0.2 0.6 0.4
v -0.1 0.6 0.4
v 0.1 0.6 0.4
v 0.2 0.6 0.4
v -0.3 0.6 0.3
v -0.2 0.6 0.3
v 0.2 0.6 0.3
v 0.3 0.6 0.3
v -0.3 0.6 -1
v -0.2 0.6 -1
v 0.2 0.6 -1
v 0.3 0.6 -1
v -0.3 0.6 -1.2
v 0.3 0.6 -1.2
v -0.1 0.7 1.2
v 0.1 0.7 1.2
v -0.2 0.7 0.6
v -0.1 0.7 0.6
v 0.1 0.7 0.6
v 0.2 0.7 0.6
v -0.3 0.7 0.5
v -0.2 0.7 0.5
v -0.1 0.7 0.5
v 0.1 0.7 0.5
v 0.2 0.7 0.5
v 0.3 0.7 0.5
v -0.2 0.7 0.4
v -0.1 0.7 0.4
v 0.1 0.7 0.4
v 0.2 0.7 0.4
v -0.3 0.7 0.3
v -0.2 0.7 0.3
v 0.2 0.7 0.3
v 0.3 0.7 0.3
v -0.3 0.7 -1
v -0.2 0.7 -1
v 0.2 0.7 -1
v 0.3 0.7 -1
v -0.3 0.7 -1.2
v 0.3 0.7 -1.2
v -0.1 0.8 0.5
v 0.1 0.8 0.5
v -0.2 0.8 0.4
v -0.1 0.8 0.4
v 0.1 0.8 0.4
v 0.2 0.8 0.4
v -0.2 0.8 0.3
v 0.2 0.8 0.3

# faces
f 5/2/1 2/2/1 1/2/1
f 6/2/1 2/2/1 5/2/1
f 7/3/1 4/3/1 3/3/1
f 8/3/1 4/3/1 7/3/1
f 13/2/1 10/2/1 9/2/1
f 14/2/1 10/2/1 13/2/1
f 16/2/1 12/2/1 11/2/1
f 17/2/1 12/2/1 16/2/1
f 19/3/1 15/3/1 14/3/1
f 20/3/1 15/3/1 19/3/1
f 21/2/1 19/2/1 18/2/1
f 22/2/1 19/2/1 21/2/1
f 27/2/1 24/2/1 23/2/1
f 28/2/1 24/2/1 27/2/1
f 29/1/1 26/1/1 25/1/1
f 30/1/1 26/1/1 29/1/1
f 33/2/1 32/2/1 31/2/1
f 34/2/1 32/2/1 33/2/1
f 35/2/2 36/2/2 39/2/2
f 39/2/2 36/2/2 40/2/2
f 37/1/2 38/1/2 41/1/2
f 41/1/2 38/1/2 42/1/2
f 43/2/2 44/2/2 45/2/2
f 45/2/2 44/2/2 46/2/2
f 47/2/2 48/2/2 51/2/2
f 51/2/2 48/2/2 52/2/2
f 49/2/2 50/2/2 54/2/2
f 54/2/2 50/2/2 55/2/2
f 52/3/2 53/3/2 57/3/2
f 57/3/2 53/3/2 58/3/2
f 56/2/2 57/2/2 59/2/2
f 59/2/2 57/2/2 60/2/2
f 61/2/2 62/2/2 65/2/2
f 65/2/2 62/2/2 66/2/2
f 63/3/2 64/3/2 67/3/2
f 67/3/2 64/3/2 68/3/2
f 71/1/3 70/1/3 69/1/3
f 72/1/3 70/1/3 71/1/3
f 75/2/3 74/2/3 73/2/3
f 76/2/3 74/2/3 75/2/3
f 79/2/3 78/2/3 77/2/3
f 80/2/3 78/2/3 79/2/3
f 83/2/3 82/2/3 81/2/3
f 84/2/3 82/2/3 83/2/3
f 89/2/3 86/2/3 85/2/3
f 90/2/3 86/2/3 89/2/3
f 91/2/3 88/2/3 87/2/3
f 92/2/3 88/2/3 91/2/3
f 95/2/3 94/2/3 93/2/3
f 96/2/3 94/2/3 95/2/3
f 101/2/3 98/2/3 97/2/3
f 102/2/3 98/2/3 101/2/3
f 103/2/3 100/2/3 99/2/3
f 104/2/3 100/2/3 103/2/3
f 109/2/3 106/2/3 105/2/3
f 110/2/3 106/2/3 109/2/3
f 111/2/3 108/2/3 107/2/3
f 112/2/3 108/2/3 111/2/3
f 115/3/3 114/3/3 113/3/3
f 116/3/3 114/3/3 115/3/3
f 119/3/3 118/3/3 117/3/3
f 120/3/3 118/3/3 119/3/3
f 121/2/4 122/2/4 124/2/4
f 124/2/4 122/2/4 125/2/4
f 123/2/4 124/2/4 127/2/4
f 127/2/4 124/2/4 128/2/4
f 125/2/4 126/2/4 129/2/4
f 129/2/4 126/2/4 130/2/4
f 128/2/4 129/2/4 131/2/4
f 131/2/4 129/2/4 132/2/4
f 133/3/4 134/3/4 135/3/4
f 135/3/4 134/3/4 136/3/4
f 140/2/5 138/2/5 137/2/5
f 141/2/5 138/2/5 140/2/5
f 143/2/5 140/2/5 139/2/5
f 143/2/5 142/2/5 141/2/5
f 143/2/5 141/2/5 140/2/5
f 144/2/5 142/2/5 143/2/5
f 148/1/5 146/1/5 145/1/5
f 149/1/5 146/1/5 148/1/5
f 152/2/5 148/2/5 147/2/5
f 153/1/5 149/1/5 148/1/5
f 153/2/5 148/2/5 152/2/5
f 154/2/5 150/2/5 149/2/5
f 154/1/5 149/1/5 153/1/5
f 155/2/5 150/2/5 154/2/5
f 157/2/5 153/2/5 152/2/5
f 157/2/5 152/2/5 151/2/5
f 158/2/5 153/2/5 157/2/5
f 159/2/5 156/2/5 155/2/5
f 159/2/5 155/2/5 154/2/5
f 160/2/5 156/2/5 159/2/5
f 161/2/5 157/2/5 151/2/5
f 162/2/5 157/2/5 161/2/5
f 163/2/5 156/2/5 160/2/5
f 164/2/5 156/2/5 163/2/5
f 166/3/5 163/3/5 162/3/5
f 167/3/5 163/3/5 166/3/5
f 169/3/5 166/3/5 165/3/5
f 169/3/5 168/3/5 167/3/5
f 169/3/5 167/3/5 166/3/5
f 170/3/5 168/3/5 169/3/5
f 171/1/6 172/1/6 174/1/6
f 174/1/6 172/1/6 175/1/6
f 173/2/6 174/2/6 178/2/6
f 174/1/6 175/1/6 179/1/6
f 178/2/6 174/2/6 179/2/6
f 175/2/6 176/2/6 180/2/6
f 179/1/6 175/1/6 180/1/6
f 180/2/6 176/2/6 181/2/6
f 178/2/6 179/2/6 183/2/6
f 177/2/6 178/2/6 183/2/6
f 183/2/6 179/2/6 184/2/6
f 181/2/6 182/2/6 185/2/6
f 180/2/6 181/2/6 185/2/6
f 185/2/6 182/2/6 186/2/6
f 177/2/6 183/2/6 187/2/6
f 187/2/6 183/2/6 188/2/6
f 186/2/6 182/2/6 189/2/6
f 189/2/6 182/2/6 190/2/6
f 188/3/6 189/3/6 192/3/6
f 192/3/6 189/3/6 193/3/6
f 191/3/6 192/3/6 195/3/6
f 193/3/6 194/3/6 195/3/6
f 192/3/6 193/3/6 195/3/6
f 195/3/6 194/3/6 196/3/6
f 197/2/6 198/2/6 200/2/6
f 200/2/6 198/2/6 201/2/6
f 199/2/6 200/2/6 203/2/6
f 201/2/6 202/2/6 203/2/6
f 200/2/6 201/2/6 203/2/6
f 203/2/6 202/2/6 204/2/6
