# MagicaVoxel @ Ephtracy

# group
o 

# material
mtllib MagicDagger.mtl
usemtl palette

# normals
vn -1 0 0
vn 1 0 0
vn 0 0 1
vn 0 0 -1
vn 0 -1 0
vn 0 1 0

# texcoords
vt 0.0253906 0.5
vt 0.123047 0.5

# verts
v -0.2 0 0.6
v -0.2 0 0.4
v -0.2 0 -0.7
v -0.2 0.1 0.6
v -0.2 0.1 0.4
v -0.2 0.1 -0.7
v -0.1 0 0.8
v -0.1 0 0.6
v -0.1 0.1 0.8
v -0.1 0.1 0.6
v 0 0 0
v 0 0 -0.7
v 0 0.1 0
v 0 0.1 -0.7
v -0.1 0 0
v -0.1 0 -0.7
v -0.1 0.1 0
v -0.1 0.1 -0.7
v 0 0 0.8
v 0 0 0.6
v 0 0.1 0.8
v 0 0.1 0.6
v 0.1 0 0.6
v 0.1 0 0.4
v 0.1 0 -0.7
v 0.1 0.1 0.6
v 0.1 0.1 0.4
v 0.1 0.1 -0.7
v -0.1 0 0.8
v -0.1 0.1 0.8
v 0 0 0.8
v 0 0.1 0.8
v -0.2 0 0.6
v -0.2 0.1 0.6
v -0.1 0 0.6
v -0.1 0.1 0.6
v 0 0 0.6
v 0 0.1 0.6
v 0.1 0 0.6
v 0.1 0.1 0.6
v -0.1 0 0
v -0.1 0.1 0
v 0 0 0
v 0 0.1 0
v -0.2 0 -0.7
v -0.2 0.1 -0.7
v -0.1 0 -0.7
v -0.1 0.1 -0.7
v 0 0 -0.7
v 0 0.1 -0.7
v 0.1 0 -0.7
v 0.1 0.1 -0.7
v -0.1 0 0.8
v 0 0 0.8
v -0.2 0 0.6
v -0.1 0 0.6
v 0 0 0.6
v 0.1 0 0.6
v -0.2 0 0.4
v 0.1 0 0.4
v -0.1 0 0
v 0 0 0
v -0.2 0 -0.7
v -0.1 0 -0.7
v 0 0 -0.7
v 0.1 0 -0.7
v -0.1 0.1 0.8
v 0 0.1 0.8
v -0.2 0.1 0.6
v -0.1 0.1 0.6
v 0 0.1 0.6
v 0.1 0.1 0.6
v -0.2 0.1 0.4
v 0.1 0.1 0.4
v -0.1 0.1 0
v 0 0.1 0
v -0.2 0.1 -0.7
v -0.1 0.1 -0.7
v 0 0.1 -0.7
v 0.1 0.1 -0.7

# faces
f 4/2/1 2/2/1 1/2/1
f 5/1/1 3/1/1 2/1/1
f 5/2/1 2/2/1 4/2/1
f 6/1/1 3/1/1 5/1/1
f 9/2/1 8/2/1 7/2/1
f 10/2/1 8/2/1 9/2/1
f 13/1/1 12/1/1 11/1/1
f 14/1/1 12/1/1 13/1/1
f 15/1/2 16/1/2 17/1/2
f 17/1/2 16/1/2 18/1/2
f 19/2/2 20/2/2 21/2/2
f 21/2/2 20/2/2 22/2/2
f 23/2/2 24/2/2 26/2/2
f 24/1/2 25/1/2 27/1/2
f 26/2/2 24/2/2 27/2/2
f 27/1/2 25/1/2 28/1/2
f 31/2/3 30/2/3 29/2/3
f 32/2/3 30/2/3 31/2/3
f 35/2/3 34/2/3 33/2/3
f 36/2/3 34/2/3 35/2/3
f 39/2/3 38/2/3 37/2/3
f 40/2/3 38/2/3 39/2/3
f 41/1/4 42/1/4 43/1/4
f 43/1/4 42/1/4 44/1/4
f 45/1/4 46/1/4 47/1/4
f 47/1/4 46/1/4 48/1/4
f 49/1/4 50/1/4 51/1/4
f 51/1/4 50/1/4 52/1/4
f 56/2/5 54/2/5 53/2/5
f 57/2/5 54/2/5 56/2/5
f 59/2/5 56/2/5 55/2/5
f 59/2/5 58/2/5 57/2/5
f 59/2/5 57/2/5 56/2/5
f 60/2/5 58/2/5 59/2/5
f 61/1/5 60/1/5 59/1/5
f 62/1/5 60/1/5 61/1/5
f 63/1/5 61/1/5 59/1/5
f 64/1/5 61/1/5 63/1/5
f 65/1/5 60/1/5 62/1/5
f 66/1/5 60/1/5 65/1/5
f 67/2/6 68/2/6 70/2/6
f 70/2/6 68/2/6 71/2/6
f 69/2/6 70/2/6 73/2/6
f 71/2/6 72/2/6 73/2/6
f 70/2/6 71/2/6 73/2/6
f 73/2/6 72/2/6 74/2/6
f 73/1/6 74/1/6 75/1/6
f 75/1/6 74/1/6 76/1/6
f 73/1/6 75/1/6 77/1/6
f 77/1/6 75/1/6 78/1/6
f 76/1/6 74/1/6 79/1/6
f 79/1/6 74/1/6 80/1/6
