# MagicaVoxel @ Ephtracy

# group
o 

# material
mtllib AutoHammer.mtl
usemtl palette

# normals
vn -1 0 0
vn 1 0 0
vn 0 0 1
vn 0 0 -1
vn 0 -1 0
vn 0 1 0

# texcoords
vt 0.0488281 0.5
vt 0.927734 0.5
vt 0.947266 0.5

# verts
v -0.3 1.2 0.3
v -0.3 1.2 -0.3
v -0.3 1.3 0.1
v -0.3 1.3 0
v -0.3 1.4 0
v -0.3 1.4 -0.1
v -0.3 1.5 0.1
v -0.3 1.5 0
v -0.3 1.6 0
v -0.3 1.6 -0.1
v -0.3 1.7 0.3
v -0.3 1.7 -0.3
v -0.1 0 0.2
v -0.1 0 -0.2
v -0.1 0.6 0.1
v -0.1 0.6 -0.1
v -0.1 0.7 0.1
v -0.1 0.7 0
v -0.1 1 0
v -0.1 1 -0.1
v -0.1 1.2 0.2
v -0.1 1.2 -0.2
v -0.1 1.7 0.2
v -0.1 1.7 -0.2
v -0.1 1.9 0.2
v -0.1 1.9 -0.2
v 0.2 0 0.2
v 0.2 0 -0.2
v 0.2 0.4 0
v 0.2 0.4 -0.1
v 0.2 0.6 0.2
v 0.2 0.6 0
v 0.2 0.7 0.2
v 0.2 0.7 0
v 0.2 1 0
v 0.2 1 -0.1
v 0.2 1.2 0.2
v 0.2 1.2 -0.2
v 0.2 1.7 0.2
v 0.2 1.7 -0.2
v 0.2 1.9 0.2
v 0.2 1.9 -0.2
v 0.4 1.2 0.3
v 0.4 1.2 0.2
v 0.4 1.2 -0.1
v 0.4 1.2 -0.3
v 0.4 1.3 0.2
v 0.4 1.3 -0.1
v 0.4 1.4 0
v 0.4 1.4 -0.1
v 0.4 1.5 0.3
v 0.4 1.5 0.2
v 0.4 1.5 -0.1
v 0.4 1.5 -0.2
v 0.4 1.6 0
v 0.4 1.6 -0.2
v 0.4 1.7 0.3
v 0.4 1.7 0.2
v 0.4 1.7 -0.3
v -0.3 1.2 0.3
v -0.3 1.7 0.3
v -0.2 1.2 0.3
v -0.2 1.5 0.3
v -0.1 1.3 0.3
v -0.1 1.5 0.3
v -0.1 1.6 0.3
v -0.1 1.7 0.3
v 0 1.2 0.3
v 0 1.3 0.3
v 0.3 1.5 0.3
v 0.3 1.6 0.3
v 0.4 1.2 0.3
v 0.4 1.5 0.3
v 0.4 1.7 0.3
v -0.1 0 0.2
v -0.1 1.2 0.2
v -0.1 1.7 0.2
v -0.1 1.9 0.2
v 0 1.2 0.2
v 0.1 0.6 0.2
v 0.1 0.7 0.2
v 0.2 0 0.2
v 0.2 0.6 0.2
v 0.2 0.7 0.2
v 0.2 1.2 0.2
v 0.2 1.7 0.2
v 0.2 1.9 0.2
v -0.1 0 -0.2
v -0.1 1.2 -0.2
v -0.1 1.7 -0.2
v -0.1 1.9 -0.2
v 0.2 0 -0.2
v 0.2 1.2 -0.2
v 0.2 1.7 -0.2
v 0.2 1.9 -0.2
v -0.3 1.2 -0.3
v -0.3 1.7 -0.3
v -0.2 1.3 -0.3
v -0.2 1.6 -0.3
v -0.1 1.4 -0.3
v -0.1 1.6 -0.3
v 0 1.5 -0.3
v 0 1.6 -0.3
v 0.3 1.3 -0.3
v 0.3 1.4 -0.3
v 0.3 1.5 -0.3
v 0.3 1.6 -0.3
v 0.4 1.2 -0.3
v 0.4 1.7 -0.3
v -0.1 0 0.2
v 0.2 0 0.2
v -0.1 0 -0.2
v 0.2 0 -0.2
v -0.3 1.2 0.3
v -0.2 1.2 0.3
v 0 1.2 0.3
v 0.4 1.2 0.3
v -0.2 1.2 0.2
v -0.1 1.2 0.2
v 0 1.2 0.2
v 0.2 1.2 0.2
v 0.3 1.2 0.2
v 0.4 1.2 0.2
v 0.3 1.2 -0.1
v 0.4 1.2 -0.1
v -0.1 1.2 -0.2
v 0.2 1.2 -0.2
v -0.3 1.2 -0.3
v 0.4 1.2 -0.3
v -0.3 1.7 0.3
v -0.1 1.7 0.3
v 0.4 1.7 0.3
v -0.1 1.7 0.2
v 0.2 1.7 0.2
v 0.4 1.7 0.2
v -0.1 1.7 -0.2
v 0.2 1.7 -0.2
v -0.3 1.7 -0.3
v 0.4 1.7 -0.3
v -0.1 1.9 0.2
v 0.2 1.9 0.2
v -0.1 1.9 -0.2
v 0.2 1.9 -0.2

# faces
f 3/2/1 2/2/1 1/2/1
f 4/2/1 2/2/1 3/2/1
f 5/1/1 4/1/1 3/1/1
f 5/2/1 2/2/1 4/2/1
f 6/2/1 2/2/1 5/2/1
f 7/2/1 3/2/1 1/2/1
f 7/1/1 5/1/1 3/1/1
f 7/1/1 6/1/1 5/1/1
f 8/1/1 6/1/1 7/1/1
f 9/2/1 8/2/1 7/2/1
f 9/1/1 6/1/1 8/1/1
f 10/2/1 2/2/1 6/2/1
f 10/1/1 6/1/1 9/1/1
f 11/2/1 9/2/1 7/2/1
f 11/2/1 7/2/1 1/2/1
f 11/2/1 10/2/1 9/2/1
f 12/2/1 2/2/1 10/2/1
f 12/2/1 10/2/1 11/2/1
f 15/3/1 14/3/1 13/3/1
f 16/3/1 14/3/1 15/3/1
f 17/3/1 15/3/1 13/3/1
f 17/1/1 16/1/1 15/1/1
f 18/1/1 16/1/1 17/1/1
f 19/3/1 18/3/1 17/3/1
f 19/1/1 16/1/1 18/1/1
f 20/3/1 14/3/1 16/3/1
f 20/1/1 16/1/1 19/1/1
f 21/3/1 19/3/1 17/3/1
f 21/3/1 17/3/1 13/3/1
f 21/3/1 20/3/1 19/3/1
f 22/3/1 14/3/1 20/3/1
f 22/3/1 20/3/1 21/3/1
f 25/3/1 24/3/1 23/3/1
f 26/3/1 24/3/1 25/3/1
f 27/3/2 28/3/2 29/3/2
f 29/3/2 28/3/2 30/3/2
f 27/3/2 29/3/2 31/3/2
f 29/1/2 30/1/2 32/1/2
f 31/3/2 29/3/2 32/3/2
f 31/1/2 32/1/2 33/1/2
f 32/1/2 30/1/2 34/1/2
f 33/1/2 32/1/2 34/1/2
f 33/3/2 34/3/2 35/3/2
f 34/1/2 30/1/2 35/1/2
f 30/3/2 28/3/2 36/3/2
f 35/1/2 30/1/2 36/1/2
f 33/3/2 35/3/2 37/3/2
f 35/3/2 36/3/2 37/3/2
f 36/3/2 28/3/2 38/3/2
f 37/3/2 36/3/2 38/3/2
f 39/3/2 40/3/2 41/3/2
f 41/3/2 40/3/2 42/3/2
f 43/2/2 44/2/2 47/2/2
f 44/1/2 45/1/2 47/1/2
f 45/2/2 46/2/2 48/2/2
f 47/1/2 45/1/2 48/1/2
f 47/2/2 48/2/2 49/2/2
f 48/2/2 46/2/2 50/2/2
f 49/2/2 48/2/2 50/2/2
f 43/2/2 47/2/2 51/2/2
f 47/2/2 49/2/2 51/2/2
f 51/2/2 49/2/2 52/2/2
f 50/2/2 46/2/2 53/2/2
f 49/1/2 50/1/2 53/1/2
f 53/2/2 46/2/2 54/2/2
f 52/2/2 49/2/2 55/2/2
f 49/1/2 53/1/2 55/1/2
f 53/1/2 54/1/2 55/1/2
f 54/2/2 46/2/2 56/2/2
f 55/1/2 54/1/2 56/1/2
f 51/1/2 52/1/2 57/1/2
f 52/2/2 55/2/2 58/2/2
f 57/1/2 52/1/2 58/1/2
f 55/2/2 56/2/2 58/2/2
f 56/2/2 46/2/2 59/2/2
f 58/2/2 56/2/2 59/2/2
f 62/2/3 61/2/3 60/2/3
f 63/2/3 61/2/3 62/2/3
f 64/1/3 63/1/3 62/1/3
f 65/2/3 61/2/3 63/2/3
f 65/1/3 63/1/3 64/1/3
f 66/2/3 61/2/3 65/2/3
f 67/2/3 61/2/3 66/2/3
f 68/1/3 64/1/3 62/1/3
f 69/2/3 65/2/3 64/2/3
f 69/1/3 64/1/3 68/1/3
f 69/2/3 66/2/3 65/2/3
f 70/2/3 69/2/3 68/2/3
f 70/2/3 66/2/3 69/2/3
f 71/1/3 67/1/3 66/1/3
f 71/2/3 66/2/3 70/2/3
f 72/2/3 70/2/3 68/2/3
f 73/1/3 71/1/3 70/1/3
f 73/2/3 70/2/3 72/2/3
f 74/1/3 67/1/3 71/1/3
f 74/1/3 71/1/3 73/1/3
f 79/3/3 76/3/3 75/3/3
f 80/3/3 79/3/3 75/3/3
f 81/3/3 79/3/3 80/3/3
f 82/3/3 80/3/3 75/3/3
f 83/1/3 81/1/3 80/1/3
f 83/3/3 80/3/3 82/3/3
f 84/3/3 79/3/3 81/3/3
f 84/1/3 81/1/3 83/1/3
f 85/3/3 79/3/3 84/3/3
f 86/3/3 78/3/3 77/3/3
f 87/3/3 78/3/3 86/3/3
f 88/3/4 89/3/4 92/3/4
f 92/3/4 89/3/4 93/3/4
f 90/3/4 91/3/4 94/3/4
f 94/3/4 91/3/4 95/3/4
f 96/2/4 97/2/4 98/2/4
f 98/2/4 97/2/4 99/2/4
f 98/1/4 99/1/4 100/1/4
f 99/2/4 97/2/4 101/2/4
f 100/1/4 99/1/4 101/1/4
f 100/2/4 101/2/4 102/2/4
f 101/2/4 97/2/4 103/2/4
f 102/2/4 101/2/4 103/2/4
f 96/2/4 98/2/4 104/2/4
f 98/1/4 100/1/4 104/1/4
f 100/2/4 102/2/4 105/2/4
f 104/1/4 100/1/4 105/1/4
f 102/1/4 103/1/4 106/1/4
f 105/2/4 102/2/4 106/2/4
f 103/2/4 97/2/4 107/2/4
f 106/1/4 103/1/4 107/1/4
f 105/2/4 106/2/4 108/2/4
f 104/2/4 105/2/4 108/2/4
f 106/2/4 107/2/4 108/2/4
f 96/2/4 104/2/4 108/2/4
f 107/2/4 97/2/4 109/2/4
f 108/2/4 107/2/4 109/2/4
f 112/3/5 111/3/5 110/3/5
f 113/3/5 111/3/5 112/3/5
f 118/2/5 115/2/5 114/2/5
f 118/1/5 116/1/5 115/1/5
f 119/1/5 116/1/5 118/1/5
f 120/2/5 117/2/5 116/2/5
f 120/1/5 116/1/5 119/1/5
f 121/2/5 117/2/5 120/2/5
f 122/2/5 117/2/5 121/2/5
f 123/2/5 117/2/5 122/2/5
f 124/1/5 123/1/5 122/1/5
f 124/2/5 122/2/5 121/2/5
f 125/1/5 123/1/5 124/1/5
f 126/2/5 119/2/5 118/2/5
f 127/2/5 124/2/5 121/2/5
f 127/2/5 125/2/5 124/2/5
f 128/2/5 118/2/5 114/2/5
f 128/2/5 127/2/5 126/2/5
f 128/2/5 126/2/5 118/2/5
f 129/2/5 125/2/5 127/2/5
f 129/2/5 127/2/5 128/2/5
f 130/2/6 131/2/6 133/2/6
f 131/1/6 132/1/6 133/1/6
f 133/1/6 132/1/6 134/1/6
f 134/1/6 132/1/6 135/1/6
f 130/2/6 133/2/6 136/2/6
f 134/2/6 135/2/6 137/2/6
f 130/2/6 136/2/6 138/2/6
f 136/2/6 137/2/6 138/2/6
f 137/2/6 135/2/6 139/2/6
f 138/2/6 137/2/6 139/2/6
f 140/3/6 141/3/6 142/3/6
f 142/3/6 141/3/6 143/3/6
