# MagicaVoxel @ Ephtracy

# group
o 

# material
mtllib GoldCoin.mtl
usemtl palette

# normals
vn -1 0 0
vn 1 0 0
vn 0 0 1
vn 0 0 -1
vn 0 -1 0
vn 0 1 0

# texcoords
vt 0.0761719 0.5
vt 0.373047 0.5
vt 0.494141 0.5

# verts
v -0.4 0.3 -7.45058e-09
v -0.4 0.3 -0.1
v -0.4 0.6 -7.45058e-09
v -0.4 0.6 -0.1
v -0.3 0.1 -7.45058e-09
v -0.3 0.1 -0.1
v -0.3 0.3 -7.45058e-09
v -0.3 0.3 -0.1
v -0.3 0.6 -7.45058e-09
v -0.3 0.6 -0.1
v -0.3 0.8 -7.45058e-09
v -0.3 0.8 -0.1
v -0.2 0 -7.45058e-09
v -0.2 0 -0.1
v -0.2 0.1 -7.45058e-09
v -0.2 0.1 -0.1
v -0.2 0.8 -7.45058e-09
v -0.2 0.8 -0.1
v -0.2 0.9 -7.45058e-09
v -0.2 0.9 -0.1
v 0.2 0 -7.45058e-09
v 0.2 0 -0.1
v 0.2 0.1 -7.45058e-09
v 0.2 0.1 -0.1
v 0.2 0.8 -7.45058e-09
v 0.2 0.8 -0.1
v 0.2 0.9 -7.45058e-09
v 0.2 0.9 -0.1
v 0.3 0.1 -7.45058e-09
v 0.3 0.1 -0.1
v 0.3 0.3 -7.45058e-09
v 0.3 0.3 -0.1
v 0.3 0.6 -7.45058e-09
v 0.3 0.6 -0.1
v 0.3 0.8 -7.45058e-09
v 0.3 0.8 -0.1
v 0.4 0.3 -7.45058e-09
v 0.4 0.3 -0.1
v 0.4 0.6 -7.45058e-09
v 0.4 0.6 -0.1
v -0.4 0.3 -7.45058e-09
v -0.4 0.6 -7.45058e-09
v -0.3 0.1 -7.45058e-09
v -0.3 0.3 -7.45058e-09
v -0.3 0.6 -7.45058e-09
v -0.3 0.8 -7.45058e-09
v -0.2 0 -7.45058e-09
v -0.2 0.1 -7.45058e-09
v -0.2 0.3 -7.45058e-09
v -0.2 0.5 -7.45058e-09
v -0.2 0.6 -7.45058e-09
v -0.2 0.7 -7.45058e-09
v -0.2 0.8 -7.45058e-09
v -0.2 0.9 -7.45058e-09
v -0.1 0.1 -7.45058e-09
v -0.1 0.5 -7.45058e-09
v 0.1 0.1 -7.45058e-09
v 0.1 0.5 -7.45058e-09
v 0.2 0 -7.45058e-09
v 0.2 0.1 -7.45058e-09
v 0.2 0.3 -7.45058e-09
v 0.2 0.5 -7.45058e-09
v 0.2 0.6 -7.45058e-09
v 0.2 0.7 -7.45058e-09
v 0.2 0.8 -7.45058e-09
v 0.2 0.9 -7.45058e-09
v 0.3 0.1 -7.45058e-09
v 0.3 0.3 -7.45058e-09
v 0.3 0.6 -7.45058e-09
v 0.3 0.8 -7.45058e-09
v 0.4 0.3 -7.45058e-09
v 0.4 0.6 -7.45058e-09
v -0.4 0.3 -0.1
v -0.4 0.6 -0.1
v -0.3 0.1 -0.1
v -0.3 0.3 -0.1
v -0.3 0.6 -0.1
v -0.3 0.8 -0.1
v -0.2 0 -0.1
v -0.2 0.1 -0.1
v -0.2 0.3 -0.1
v -0.2 0.5 -0.1
v -0.2 0.6 -0.1
v -0.2 0.7 -0.1
v -0.2 0.8 -0.1
v -0.2 0.9 -0.1
v -0.1 0.1 -0.1
v -0.1 0.5 -0.1
v 0.1 0.1 -0.1
v 0.1 0.5 -0.1
v 0.2 0 -0.1
v 0.2 0.1 -0.1
v 0.2 0.3 -0.1
v 0.2 0.5 -0.1
v 0.2 0.6 -0.1
v 0.2 0.7 -0.1
v 0.2 0.8 -0.1
v 0.2 0.9 -0.1
v 0.3 0.1 -0.1
v 0.3 0.3 -0.1
v 0.3 0.6 -0.1
v 0.3 0.8 -0.1
v 0.4 0.3 -0.1
v 0.4 0.6 -0.1
v -0.2 0 -7.45058e-09
v 0.2 0 -7.45058e-09
v -0.2 0 -0.1
v 0.2 0 -0.1
v -0.3 0.1 -7.45058e-09
v -0.2 0.1 -7.45058e-09
v 0.2 0.1 -7.45058e-09
v 0.3 0.1 -7.45058e-09
v -0.3 0.1 -0.1
v -0.2 0.1 -0.1
v 0.2 0.1 -0.1
v 0.3 0.1 -0.1
v -0.4 0.3 -7.45058e-09
v -0.3 0.3 -7.45058e-09
v 0.3 0.3 -7.45058e-09
v 0.4 0.3 -7.45058e-09
v -0.4 0.3 -0.1
v -0.3 0.3 -0.1
v 0.3 0.3 -0.1
v 0.4 0.3 -0.1
v -0.4 0.6 -7.45058e-09
v -0.3 0.6 -7.45058e-09
v 0.3 0.6 -7.45058e-09
v 0.4 0.6 -7.45058e-09
v -0.4 0.6 -0.1
v -0.3 0.6 -0.1
v 0.3 0.6 -0.1
v 0.4 0.6 -0.1
v -0.3 0.8 -7.45058e-09
v -0.2 0.8 -7.45058e-09
v 0.2 0.8 -7.45058e-09
v 0.3 0.8 -7.45058e-09
v -0.3 0.8 -0.1
v -0.2 0.8 -0.1
v 0.2 0.8 -0.1
v 0.3 0.8 -0.1
v -0.2 0.9 -7.45058e-09
v 0.2 0.9 -7.45058e-09
v -0.2 0.9 -0.1
v 0.2 0.9 -0.1

# faces
f 3/1/1 2/1/1 1/1/1
f 4/1/1 2/1/1 3/1/1
f 7/1/1 6/1/1 5/1/1
f 8/1/1 6/1/1 7/1/1
f 11/1/1 10/1/1 9/1/1
f 12/1/1 10/1/1 11/1/1
f 15/1/1 14/1/1 13/1/1
f 16/1/1 14/1/1 15/1/1
f 19/1/1 18/1/1 17/1/1
f 20/1/1 18/1/1 19/1/1
f 21/1/2 22/1/2 23/1/2
f 23/1/2 22/1/2 24/1/2
f 25/1/2 26/1/2 27/1/2
f 27/1/2 26/1/2 28/1/2
f 29/1/2 30/1/2 31/1/2
f 31/1/2 30/1/2 32/1/2
f 33/1/2 34/1/2 35/1/2
f 35/1/2 34/1/2 36/1/2
f 37/1/2 38/1/2 39/1/2
f 39/1/2 38/1/2 40/1/2
f 44/1/3 42/1/3 41/1/3
f 45/1/3 42/1/3 44/1/3
f 48/1/3 44/1/3 43/1/3
f 49/2/3 45/2/3 44/2/3
f 49/1/3 44/1/3 48/1/3
f 50/2/3 45/2/3 49/2/3
f 51/1/3 46/1/3 45/1/3
f 51/2/3 45/2/3 50/2/3
f 52/1/3 46/1/3 51/1/3
f 53/1/3 46/1/3 52/1/3
f 55/2/3 50/2/3 49/2/3
f 55/1/3 48/1/3 47/1/3
f 55/2/3 49/2/3 48/2/3
f 56/3/3 52/3/3 51/3/3
f 56/2/3 50/2/3 55/2/3
f 56/3/3 51/3/3 50/3/3
f 57/1/3 55/1/3 47/1/3
f 57/3/3 56/3/3 55/3/3
f 58/3/3 52/3/3 56/3/3
f 58/3/3 56/3/3 57/3/3
f 59/1/3 57/1/3 47/1/3
f 60/2/3 58/2/3 57/2/3
f 60/1/3 57/1/3 59/1/3
f 61/2/3 58/2/3 60/2/3
f 62/3/3 52/3/3 58/3/3
f 62/2/3 58/2/3 61/2/3
f 63/3/3 52/3/3 62/3/3
f 64/2/3 53/2/3 52/2/3
f 64/3/3 52/3/3 63/3/3
f 65/1/3 54/1/3 53/1/3
f 65/2/3 53/2/3 64/2/3
f 66/1/3 54/1/3 65/1/3
f 67/1/3 61/1/3 60/1/3
f 68/2/3 63/2/3 62/2/3
f 68/1/3 61/1/3 67/1/3
f 68/2/3 62/2/3 61/2/3
f 69/1/3 64/1/3 63/1/3
f 69/2/3 63/2/3 68/2/3
f 69/1/3 65/1/3 64/1/3
f 70/1/3 65/1/3 69/1/3
f 71/1/3 69/1/3 68/1/3
f 72/1/3 69/1/3 71/1/3
f 73/1/4 74/1/4 76/1/4
f 76/1/4 74/1/4 77/1/4
f 75/1/4 76/1/4 80/1/4
f 76/2/4 77/2/4 81/2/4
f 80/1/4 76/1/4 81/1/4
f 81/2/4 77/2/4 82/2/4
f 77/1/4 78/1/4 83/1/4
f 82/2/4 77/2/4 83/2/4
f 83/1/4 78/1/4 84/1/4
f 84/1/4 78/1/4 85/1/4
f 81/2/4 82/2/4 87/2/4
f 79/1/4 80/1/4 87/1/4
f 80/2/4 81/2/4 87/2/4
f 83/3/4 84/3/4 88/3/4
f 87/2/4 82/2/4 88/2/4
f 82/3/4 83/3/4 88/3/4
f 79/1/4 87/1/4 89/1/4
f 87/3/4 88/3/4 89/3/4
f 88/3/4 84/3/4 90/3/4
f 89/3/4 88/3/4 90/3/4
f 79/1/4 89/1/4 91/1/4
f 89/2/4 90/2/4 92/2/4
f 91/1/4 89/1/4 92/1/4
f 92/2/4 90/2/4 93/2/4
f 90/3/4 84/3/4 94/3/4
f 93/2/4 90/2/4 94/2/4
f 94/3/4 84/3/4 95/3/4
f 84/2/4 85/2/4 96/2/4
f 95/3/4 84/3/4 96/3/4
f 85/1/4 86/1/4 97/1/4
f 96/2/4 85/2/4 97/2/4
f 97/1/4 86/1/4 98/1/4
f 92/1/4 93/1/4 99/1/4
f 94/2/4 95/2/4 100/2/4
f 99/1/4 93/1/4 100/1/4
f 93/2/4 94/2/4 100/2/4
f 95/1/4 96/1/4 101/1/4
f 100/2/4 95/2/4 101/2/4
f 96/1/4 97/1/4 101/1/4
f 101/1/4 97/1/4 102/1/4
f 100/1/4 101/1/4 103/1/4
f 103/1/4 101/1/4 104/1/4
f 107/1/5 106/1/5 105/1/5
f 108/1/5 106/1/5 107/1/5
f 113/1/5 110/1/5 109/1/5
f 114/1/5 110/1/5 113/1/5
f 115/1/5 112/1/5 111/1/5
f 116/1/5 112/1/5 115/1/5
f 121/1/5 118/1/5 117/1/5
f 122/1/5 118/1/5 121/1/5
f 123/1/5 120/1/5 119/1/5
f 124/1/5 120/1/5 123/1/5
f 125/1/6 126/1/6 129/1/6
f 129/1/6 126/1/6 130/1/6
f 127/1/6 128/1/6 131/1/6
f 131/1/6 128/1/6 132/1/6
f 133/1/6 134/1/6 137/1/6
f 137/1/6 134/1/6 138/1/6
f 135/1/6 136/1/6 139/1/6
f 139/1/6 136/1/6 140/1/6
f 141/1/6 142/1/6 143/1/6
f 143/1/6 142/1/6 144/1/6
